<svg xmlns="http://www.w3.org/2000/svg" viewBox="0 0 200 260">
<defs><linearGradient id="h" x1="0" x2="1"><stop stop-color="#7d35ff"/><stop offset="1" stop-color="#44117a"/></linearGradient></defs>
<ellipse cx="100" cy="239" rx="62" ry="12" fill="#000" opacity=".28"/>
<path d="M57 134 h86 a22 22 0 0 1 22 22 v45 a23 23 0 0 1-23 23 H58 a23 23 0 0 1-23-23 v-45 a22 22 0 0 1 22-22z" fill="url(#h)" stroke="#ffb22e" stroke-width="4"/>
<path d="M53 170 h94 v42 H53z" fill="#6623bd" opacity=".8"/>
<circle cx="100" cy="82" r="62" fill="#24d8ff" stroke="#1b1555" stroke-width="5"/>
<path d="M68 33 Q100 0 132 33" fill="none" stroke="#6f34ff" stroke-width="8" stroke-linecap="round"/>
<circle cx="75" cy="84" r="21" fill="white"/><circle cx="125" cy="84" r="21" fill="white"/><circle cx="81" cy="88" r="9" fill="#101034"/><circle cx="131" cy="88" r="9" fill="#101034"/><circle cx="86" cy="81" r="4" fill="white"/><circle cx="136" cy="81" r="4" fill="white"/>
<circle cx="56" cy="109" r="10" fill="#ff78a8" opacity=".8"/><circle cx="144" cy="109" r="10" fill="#ff78a8" opacity=".8"/>
<path d="M78 116 Q100 137 122 116" stroke="#101034" stroke-width="7" fill="none" stroke-linecap="round"/>
<path d="M40 158 Q15 177 31 207" stroke="#1b1555" stroke-width="13" fill="none" stroke-linecap="round"/>
<path d="M160 158 Q185 177 169 207" stroke="#1b1555" stroke-width="13" fill="none" stroke-linecap="round"/>
<path d="M70 223 L56 247" stroke="#1b1555" stroke-width="14" stroke-linecap="round"/><path d="M130 223 L144 247" stroke="#1b1555" stroke-width="14" stroke-linecap="round"/>
<path d="M45 248 h36" stroke="#ff4a4a" stroke-width="12" stroke-linecap="round"/><path d="M119 248 h36" stroke="#ff4a4a" stroke-width="12" stroke-linecap="round"/>

</svg>