<svg xmlns="http://www.w3.org/2000/svg" viewBox="0 0 200 260">
<defs><linearGradient id="h" x1="0" x2="1"><stop stop-color="#7d35ff"/><stop offset="1" stop-color="#44117a"/></linearGradient></defs>
<ellipse cx="100" cy="239" rx="62" ry="12" fill="#000" opacity=".28"/>
<path d="M57 134 h86 a22 22 0 0 1 22 22 v45 a23 23 0 0 1-23 23 H58 a23 23 0 0 1-23-23 v-45 a22 22 0 0 1 22-22z" fill="url(#h)" stroke="#ffb22e" stroke-width="4"/>
<path d="M53 170 h94 v42 H53z" fill="#6623bd" opacity=".8"/>
<circle cx="100" cy="82" r="62" fill="#24d8ff" stroke="#1b1555" stroke-width="5"/>
<path d="M68 33 Q100 0 132 33" fill="none" stroke="#6f34ff" stroke-width="8" stroke-linecap="round"/>
<path d="M55 68 Q75 58 95 71" stroke="#101034" stroke-width="6" fill="none" stroke-linecap="round"/><path d="M105 71 Q125 58 145 68" stroke="#101034" stroke-width="6" fill="none" stroke-linecap="round"/><circle cx="75" cy="88" r="18" fill="white"/><circle cx="125" cy="88" r="18" fill="white"/><circle cx="78" cy="93" r="8" fill="#101034"/><circle cx="128" cy="93" r="8" fill="#101034"/>
<circle cx="56" cy="109" r="10" fill="#ff78a8" opacity=".8"/><circle cx="144" cy="109" r="10" fill="#ff78a8" opacity=".8"/>
<ellipse cx="100" cy="121" rx="17" ry="21" fill="#42102b"/><ellipse cx="100" cy="130" rx="10" ry="7" fill="#ff6aa8"/>
<path d="M40 158 Q15 177 31 207" stroke="#1b1555" stroke-width="13" fill="none" stroke-linecap="round"/>
<path d="M160 158 Q185 177 169 207" stroke="#1b1555" stroke-width="13" fill="none" stroke-linecap="round"/>
<path d="M70 223 L56 247" stroke="#1b1555" stroke-width="14" stroke-linecap="round"/><path d="M130 223 L144 247" stroke="#1b1555" stroke-width="14" stroke-linecap="round"/>
<path d="M45 248 h36" stroke="#ff4a4a" stroke-width="12" stroke-linecap="round"/><path d="M119 248 h36" stroke="#ff4a4a" stroke-width="12" stroke-linecap="round"/>
<ellipse cx="40" cy="25" rx="27" ry="15" fill="#545075"/><ellipse cx="66" cy="20" rx="24" ry="15" fill="#545075"/><ellipse cx="130" cy="24" rx="25" ry="15" fill="#545075"/><path d="M133 42 l-9 25 h15 l-12 28" stroke="#ffc836" stroke-width="6" fill="none"/>
</svg>